<?xml version="1.0" encoding="UTF-8" standalone="no"?>
<!-- Generator: Adobe Illustrator 19.2.1, SVG Export Plug-In . SVG Version: 6.00 Build 0)  -->

<svg
   xmlns:dc="http://purl.org/dc/elements/1.1/"
   xmlns:cc="http://creativecommons.org/ns#"
   xmlns:rdf="http://www.w3.org/1999/02/22-rdf-syntax-ns#"
   xmlns:svg="http://www.w3.org/2000/svg"
   xmlns="http://www.w3.org/2000/svg"
   xmlns:sodipodi="http://sodipodi.sourceforge.net/DTD/sodipodi-0.dtd"
   xmlns:inkscape="http://www.inkscape.org/namespaces/inkscape"
   version="1.1"
   id="layer"
   x="0px"
   y="0px"
   viewBox="0 0 603.47864 97.178665"
   xml:space="preserve"
   sodipodi:docname="swiss-national-science-foundation-snsf-logo-vector.svg"
   width="603.47864"
   height="97.178665"
   inkscape:version="0.92.3 (2405546, 2018-03-11)"><metadata
   id="metadata95"><rdf:RDF><cc:Work
       rdf:about=""><dc:format>image/svg+xml</dc:format><dc:type
         rdf:resource="http://purl.org/dc/dcmitype/StillImage" /><dc:title></dc:title></cc:Work></rdf:RDF></metadata><defs
   id="defs93" /><sodipodi:namedview
   pagecolor="#ffffff"
   bordercolor="#666666"
   borderopacity="1"
   objecttolerance="10"
   gridtolerance="10"
   guidetolerance="10"
   inkscape:pageopacity="0"
   inkscape:pageshadow="2"
   inkscape:window-width="829"
   inkscape:window-height="480"
   id="namedview91"
   showgrid="false"
   fit-margin-top="0"
   fit-margin-left="0"
   fit-margin-right="0"
   fit-margin-bottom="0"
   inkscape:zoom="0.36196319"
   inkscape:cx="307.67865"
   inkscape:cy="42.5"
   inkscape:window-x="67"
   inkscape:window-y="27"
   inkscape:window-maximized="0"
   inkscape:current-layer="layer" />
<style
   type="text/css"
   id="style2">
	.st0{fill:#0054A7;}
	.st1{fill-rule:evenodd;clip-rule:evenodd;fill:#FFFFFF;}
	.st2{fill:none;stroke:#FFFFFF;stroke-width:6.9573;}
	.st3{fill-rule:evenodd;clip-rule:evenodd;fill:#0054A7;}
	.st4{fill-rule:evenodd;clip-rule:evenodd;fill:#B5B5B6;}
	.st5{fill:#FFFFFF;}
	.st6{fill:none;stroke:#FFFFFF;stroke-width:0.9586;}
</style>
<g
   id="g88"
   transform="translate(-18.321349,-271.32134)">
	<path
   class="st0"
   d="m 136.3,368.5 c -2.5,0 -5,-0.6 -7.1,-2 l 1.2,-2.4 c 1.9,1.2 3.7,1.8 5.9,1.8 2.9,0 4.8,-1.5 4.8,-3.8 0,-1.8 -1.2,-3 -3.6,-3.7 l -2.3,-0.7 c -3.3,-1 -5.2,-2.6 -5.2,-5.7 0,-3.8 2.9,-6.4 7.3,-6.4 2.4,0 4.8,0.7 6.7,2.1 l -1.4,2.2 c -2,-1.2 -3.4,-1.7 -5.2,-1.7 -2.5,0 -4,1.3 -4,3.3 0,1.6 0.9,2.5 3.3,3.2 l 2.6,0.8 c 2.9,0.9 5.4,2.8 5.4,6.2 -0.1,3 -2.6,6.8 -8.4,6.8"
   id="path4"
   inkscape:connector-curvature="0"
   style="fill:#0054a7" />
	<path
   class="st0"
   d="m 164.3,368.2 h -3.5 l -1.9,-7.3 c -0.6,-2.5 -1,-4.8 -1.1,-5.4 -0.1,0.7 -0.5,3 -1.1,5.3 l -1.8,7.5 h -3.6 l -4.5,-16.9 h 3.2 l 2,7.4 c 0.7,2.6 1,4.7 1.1,5.8 0.1,-1 0.5,-3.1 1.1,-5.6 l 2,-7.6 h 3.3 l 2,8.1 c 0.5,2 0.9,4.1 1,5 0.1,-0.8 0.5,-3.2 1.1,-5.5 l 1.9,-7.5 h 3.1 l -4.3,16.7"
   id="path6"
   inkscape:connector-curvature="0"
   style="fill:#0054a7" />
	<rect
   x="172.39999"
   y="351.29999"
   class="st0"
   width="3"
   height="16.799999"
   id="rect8"
   style="fill:#0054a7" />
	<path
   class="st0"
   d="m 189.8,367.4 c -1.2,0.7 -2.7,1 -4.4,1 -2.1,0 -4.3,-0.5 -6.2,-1.5 l 1.1,-2.3 c 1.8,0.9 3.4,1.4 5.2,1.4 1.1,0 1.9,-0.2 2.5,-0.5 0.8,-0.4 1.2,-1.1 1.2,-1.9 0,-1.2 -0.9,-2 -3,-2.5 l -2.4,-0.6 c -1.5,-0.4 -2.7,-1.1 -3.4,-2.2 -0.5,-0.7 -0.7,-1.5 -0.7,-2.3 0,-3 2.7,-5.1 6.4,-5.1 2.2,0 4.5,0.6 6,1.7 l -1.4,2.1 c -1.5,-0.9 -3,-1.3 -4.5,-1.3 -2,0 -3.3,0.8 -3.3,2.2 0,1.1 0.7,1.6 2.7,2.2 l 2.3,0.6 c 1.3,0.4 2.6,0.9 3.4,1.7 0.8,0.8 1.2,1.9 1.2,3 0.1,1.7 -0.9,3.4 -2.7,4.3"
   id="path10"
   inkscape:connector-curvature="0"
   style="fill:#0054a7" />
	<path
   class="st0"
   d="m 205.9,367.4 c -1.2,0.7 -2.7,1 -4.4,1 -2.1,0 -4.3,-0.5 -6.2,-1.5 l 1.1,-2.3 c 1.8,0.9 3.4,1.4 5.2,1.4 1.1,0 1.9,-0.2 2.5,-0.5 0.8,-0.4 1.2,-1.1 1.2,-1.9 0,-1.2 -0.9,-2 -3,-2.5 l -2.4,-0.6 c -1.5,-0.4 -2.7,-1.1 -3.4,-2.2 -0.5,-0.7 -0.7,-1.5 -0.7,-2.3 0,-3 2.7,-5.1 6.4,-5.1 2.2,0 4.5,0.6 6,1.7 l -1.4,2.1 c -1.5,-0.9 -3,-1.3 -4.5,-1.3 -2,0 -3.3,0.8 -3.3,2.2 0,1.1 0.7,1.6 2.7,2.2 l 2.3,0.6 c 1.3,0.4 2.6,0.9 3.4,1.7 0.8,0.8 1.2,1.9 1.2,3 0.1,1.7 -0.9,3.4 -2.7,4.3"
   id="path12"
   inkscape:connector-curvature="0"
   style="fill:#0054a7" />
	<path
   class="st0"
   d="m 231.3,368.1 -5.8,-11.7 c -1.1,-2.3 -2.3,-4.8 -2.7,-6 h -0.2 c 0.2,1.9 0.2,4.1 0.3,6.1 l 0.1,11.6 h -3.1 v -22 h 3.6 l 6.1,12.1 c 0.9,1.8 2,4.7 2.2,5.3 l 0.2,-0.1 c -0.1,-0.6 -0.3,-4.1 -0.3,-6.6 L 231.6,346 h 3 v 22 h -3.3"
   id="path14"
   inkscape:connector-curvature="0"
   style="fill:#0054a7" />
	<path
   class="st0"
   d="m 245.4,353.9 c -0.1,0.4 -2.3,6.9 -2.4,7.3 h 4.8 c -0.2,-0.5 -2.3,-6.8 -2.4,-7.3 m 4.7,14.2 -1.6,-4.4 h -6.3 l -1.6,4.4 h -3.1 l 6.3,-16.8 h 3.5 l 6.1,16.8 z"
   id="path16"
   inkscape:connector-curvature="0"
   style="fill:#0054a7" />
	<polygon
   class="st0"
   points="261.6,368.1 258.7,368.1 258.7,353.7 253.9,353.7 253.9,351.3 266.9,351.3 266.5,353.7 261.6,353.7 "
   id="polygon18"
   style="fill:#0054a7" />
	<rect
   x="270.10001"
   y="351.29999"
   class="st0"
   width="3"
   height="16.799999"
   id="rect20"
   style="fill:#0054a7" />
	<path
   class="st0"
   d="m 289.2,363.7 c 0.4,-1 0.5,-2 0.5,-3.8 0,-2.1 -0.2,-3.4 -0.7,-4.5 -0.8,-1.5 -2,-2.1 -3.8,-2.1 -1.5,0 -2.8,0.7 -3.5,1.8 -0.6,1 -0.9,2.4 -0.9,4.3 0,2.2 0.4,3.9 1.1,5 0.6,1.1 1.9,1.6 3.6,1.6 1.8,0.1 3.1,-0.6 3.7,-2.3 m -9.4,2.5 c -1.6,-1.7 -2.3,-3.8 -2.3,-6.6 0,-5.4 2.9,-8.6 7.8,-8.6 2.7,0 4.7,0.9 6.1,2.6 1.2,1.4 1.8,3.4 1.8,6.1 0,2.7 -0.5,4.6 -1.7,6.1 -1.4,1.8 -3.2,2.6 -6,2.6 -2.6,0 -4.3,-0.7 -5.7,-2.2"
   id="path22"
   inkscape:connector-curvature="0"
   style="fill:#0054a7" />
	<path
   class="st0"
   d="m 310.7,368.1 v -16.8 h -2.9 l 0.1,7.9 c 0,2 0.3,4.1 0.3,4.5 -0.2,-0.5 -1,-2.2 -2,-3.9 l -4.9,-8.5 h -3.4 v 16.8 h 3 l -0.1,-8.1 c 0,-2.1 -0.1,-3.8 -0.2,-4.7 0.1,0.3 1.2,2.7 2.2,4.3 l 4.8,8.4 h 3.1"
   id="path24"
   inkscape:connector-curvature="0"
   style="fill:#0054a7" />
	<path
   class="st0"
   d="m 321.7,353.9 c -0.1,0.4 -2.3,6.9 -2.4,7.3 h 4.8 c -0.2,-0.5 -2.3,-6.8 -2.4,-7.3 m 4.7,14.2 -1.6,-4.4 h -6.3 l -1.6,4.4 h -3.1 l 6.3,-16.8 h 3.5 l 6.1,16.8 z"
   id="path26"
   inkscape:connector-curvature="0"
   style="fill:#0054a7" />
	<polygon
   class="st0"
   points="332.5,351.3 335.6,351.3 335.6,365.6 342.6,365.6 342.2,368.1 332.5,368.1 "
   id="polygon28"
   style="fill:#0054a7" />
	<path
   class="st0"
   d="m 357.7,368.5 c -2.5,0 -5,-0.6 -7.1,-2 l 1.2,-2.4 c 1.9,1.2 3.7,1.8 5.9,1.8 2.9,0 4.8,-1.5 4.8,-3.8 0,-1.8 -1.2,-3 -3.6,-3.7 l -2.3,-0.7 c -3.3,-1 -5.2,-2.6 -5.2,-5.7 0,-3.8 2.9,-6.4 7.3,-6.4 2.4,0 4.8,0.7 6.7,2.1 l -1.4,2.2 c -2,-1.2 -3.4,-1.7 -5.2,-1.7 -2.5,0 -4,1.3 -4,3.3 0,1.6 0.9,2.5 3.3,3.2 l 2.6,0.8 c 2.9,0.9 5.4,2.8 5.4,6.2 -0.1,3 -2.6,6.8 -8.4,6.8"
   id="path30"
   inkscape:connector-curvature="0"
   style="fill:#0054a7" />
	<path
   class="st0"
   d="m 377,368.3 c -2.3,0 -4.2,-0.7 -5.7,-2.1 -1.6,-1.5 -2.5,-3.7 -2.5,-6.4 0,-2 0.5,-3.8 1.4,-5.2 1.4,-2.3 3.9,-3.7 6.8,-3.7 1.8,0 3.6,0.5 4.7,1.3 l -1.5,2 c -1,-0.6 -2,-1 -3.2,-1 -1.8,0 -3.3,0.9 -4.1,2.4 -0.6,1 -0.8,2.2 -0.8,4 0,2.4 0.4,3.6 1.3,4.7 1,1.1 2.2,1.6 3.7,1.6 1.3,0 2.4,-0.4 3.5,-1.1 l 1.4,1.9 c -1,1.1 -2.9,1.6 -5,1.6"
   id="path32"
   inkscape:connector-curvature="0"
   style="fill:#0054a7" />
	<rect
   x="385.39999"
   y="351.29999"
   class="st0"
   width="3"
   height="16.799999"
   id="rect34"
   style="fill:#0054a7" />
	<polygon
   class="st0"
   points="404.3,351.3 403.9,353.7 396.8,353.7 396.8,358.1 402.7,358.1 402.7,360.5 396.8,360.5 396.8,365.5 404.6,365.5 404.6,368.1 393.8,368.1 393.8,351.3 "
   id="polygon36"
   style="fill:#0054a7" />
	<path
   class="st0"
   d="M 421.9,368.1 V 351.3 H 419 l 0.1,7.9 c 0,2 0.3,4.1 0.3,4.5 -0.2,-0.5 -1,-2.2 -2,-3.9 l -4.9,-8.5 h -3.4 v 16.8 h 3 L 412,360 c 0,-2.1 -0.1,-3.8 -0.2,-4.7 0.1,0.3 1.2,2.7 2.2,4.3 l 4.8,8.4 h 3.1"
   id="path38"
   inkscape:connector-curvature="0"
   style="fill:#0054a7" />
	<path
   class="st0"
   d="m 434.1,368.3 c -2.3,0 -4.2,-0.7 -5.7,-2.1 -1.6,-1.5 -2.5,-3.7 -2.5,-6.4 0,-2 0.5,-3.8 1.4,-5.2 1.4,-2.3 3.9,-3.7 6.8,-3.7 1.8,0 3.6,0.5 4.7,1.3 l -1.5,2 c -1,-0.6 -2,-1 -3.2,-1 -1.8,0 -3.3,0.9 -4.1,2.4 -0.6,1 -0.8,2.2 -0.8,4 0,2.4 0.3,3.6 1.3,4.7 1,1.1 2.2,1.6 3.7,1.6 1.3,0 2.4,-0.4 3.5,-1.1 l 1.4,1.9 c -1.1,1.1 -2.9,1.6 -5,1.6"
   id="path40"
   inkscape:connector-curvature="0"
   style="fill:#0054a7" />
	<polygon
   class="st0"
   points="452.9,351.3 452.5,353.7 445.4,353.7 445.4,358.1 451.3,358.1 451.3,360.5 445.4,360.5 445.4,365.5 453.2,365.5 453.2,368.1 442.4,368.1 442.4,351.3 "
   id="polygon42"
   style="fill:#0054a7" />
	<polygon
   class="st0"
   points="467,355.3 473.6,355.3 473.6,357.8 467,357.8 467,368.1 463.9,368.1 463.9,346.1 475.4,346.1 475,348.6 467,348.6 "
   id="polygon44"
   style="fill:#0054a7" />
	<path
   class="st0"
   d="m 488.4,363.7 c 0.4,-1 0.5,-2 0.5,-3.8 0,-2.1 -0.2,-3.4 -0.7,-4.5 -0.8,-1.5 -2,-2.1 -3.8,-2.1 -1.5,0 -2.8,0.7 -3.5,1.8 -0.6,1 -0.9,2.4 -0.9,4.3 0,2.2 0.4,3.9 1.1,5 0.6,1.1 1.9,1.6 3.6,1.6 1.8,0.1 3.1,-0.6 3.7,-2.3 m -9.4,2.5 c -1.6,-1.7 -2.3,-3.8 -2.3,-6.6 0,-5.4 2.9,-8.6 7.8,-8.6 2.7,0 4.7,0.9 6.1,2.6 1.2,1.4 1.8,3.4 1.8,6.1 0,2.7 -0.5,4.6 -1.7,6.1 -1.4,1.8 -3.2,2.6 -6,2.6 -2.6,0 -4.3,-0.7 -5.7,-2.2"
   id="path46"
   inkscape:connector-curvature="0"
   style="fill:#0054a7" />
	<path
   class="st0"
   d="m 508.1,366.8 c -1.1,1.1 -2.7,1.6 -5,1.6 -3.2,0 -5,-1.2 -5.9,-2.7 -0.5,-1 -0.7,-1.7 -0.7,-3.5 v -10.9 h 3 v 10.3 c 0,1.2 0.1,2.1 0.3,2.6 0.4,1.1 1.7,1.7 3.3,1.7 1.3,0 2.3,-0.4 2.8,-1.1 0.5,-0.6 0.6,-1.2 0.6,-2.8 v -10.7 h 3 v 10.8 c 0.1,2.7 -0.2,3.6 -1.4,4.7"
   id="path48"
   inkscape:connector-curvature="0"
   style="fill:#0054a7" />
	<path
   class="st0"
   d="m 524.6,368.1 -4.8,-8.4 c -1,-1.7 -2.1,-4 -2.2,-4.3 0.1,0.9 0.2,2.6 0.2,4.7 l 0.1,8.1 h -3 v -16.8 h 3.4 l 4.9,8.5 c 1,1.7 1.8,3.5 2,3.9 0,-0.4 -0.3,-2.5 -0.3,-4.5 l -0.1,-7.9 h 2.9 v 16.8 h -3.1"
   id="path50"
   inkscape:connector-curvature="0"
   style="fill:#0054a7" />
	<path
   class="st0"
   d="m 541.9,355.2 c -1,-1.2 -2.1,-1.5 -3.8,-1.5 h -2 v 12 h 2.3 c 0.5,0 1.1,-0.1 1.6,-0.2 1.8,-0.4 3.1,-2 3.1,-5.6 0,-2.2 -0.3,-3.7 -1.2,-4.7 m -0.3,-3.4 c 2.5,0.8 4.8,2.8 4.8,7.8 0,5.4 -3.4,7.7 -5.5,8.2 -0.7,0.2 -1.8,0.2 -3,0.2 H 533 v -16.8 h 3.8 c 1.8,0.1 3.4,0.1 4.8,0.6"
   id="path52"
   inkscape:connector-curvature="0"
   style="fill:#0054a7" />
	<path
   class="st0"
   d="m 556.3,353.9 c -0.1,0.4 -2.3,6.9 -2.4,7.3 h 4.8 c -0.2,-0.5 -2.3,-6.8 -2.4,-7.3 m 4.7,14.2 -1.6,-4.4 h -6.3 l -1.6,4.4 h -3.1 l 6.3,-16.8 h 3.5 l 6.1,16.8 z"
   id="path54"
   inkscape:connector-curvature="0"
   style="fill:#0054a7" />
	<polygon
   class="st0"
   points="572.5,368.1 569.5,368.1 569.5,353.7 564.7,353.7 564.7,351.3 577.7,351.3 577.3,353.7 572.5,353.7 "
   id="polygon56"
   style="fill:#0054a7" />
	<rect
   x="580.90002"
   y="351.29999"
   class="st0"
   width="3"
   height="16.799999"
   id="rect58"
   style="fill:#0054a7" />
	<path
   class="st0"
   d="m 600.7,363.7 c 0.4,-1 0.5,-2 0.5,-3.8 0,-2.1 -0.2,-3.4 -0.7,-4.5 -0.8,-1.5 -2,-2.1 -3.8,-2.1 -1.5,0 -2.8,0.7 -3.5,1.8 -0.6,1 -0.9,2.4 -0.9,4.3 0,2.2 0.4,3.9 1.1,5 0.6,1.1 1.9,1.6 3.6,1.6 1.8,0.1 3.1,-0.6 3.7,-2.3 m -9.4,2.5 c -1.6,-1.7 -2.3,-3.8 -2.3,-6.6 0,-5.4 2.9,-8.6 7.8,-8.6 2.7,0 4.7,0.9 6.1,2.6 1.2,1.4 1.8,3.4 1.8,6.1 0,2.7 -0.5,4.6 -1.7,6.1 -1.4,1.8 -3.2,2.6 -6,2.6 -2.6,0 -4.3,-0.7 -5.7,-2.2"
   id="path60"
   inkscape:connector-curvature="0"
   style="fill:#0054a7" />
	<path
   class="st0"
   d="m 618.7,368.1 -4.8,-8.4 c -1,-1.7 -2.1,-4 -2.2,-4.3 0.1,0.9 0.2,2.6 0.2,4.7 l 0.1,8.1 h -3 v -16.8 h 3.4 l 4.9,8.5 c 1,1.7 1.8,3.5 2,3.9 0,-0.4 -0.3,-2.5 -0.3,-4.5 l -0.1,-7.9 h 2.9 v 16.8 h -3.1"
   id="path62"
   inkscape:connector-curvature="0"
   style="fill:#0054a7" />
	<rect
   x="21.799999"
   y="274.79999"
   class="st1"
   width="217.39999"
   height="54.400002"
   id="rect64"
   style="clip-rule:evenodd;fill:#ffffff;fill-rule:evenodd" />
	<rect
   x="21.799999"
   y="274.79999"
   class="st2"
   width="217.39999"
   height="54.400002"
   id="rect66"
   style="fill:none;stroke:#ffffff;stroke-width:6.95730019" />
	<path
   class="st3"
   d="m 149.4,274.8 c 0.1,0.1 0.2,0.1 0.3,0.2 l -6.4,12.6 c -3,-2.5 -6.8,-4.1 -10.8,-4.1 -3,0 -7,1.7 -7,5.2 0,3.6 4.4,5 7.3,5.9 l 4.2,1.2 c 8.6,2.6 15.4,7.1 15.4,17.1 0,5.7 -1.5,12.1 -5.5,16.2 h 92.4 v -54.3 h -89.9"
   id="path68"
   inkscape:connector-curvature="0"
   style="clip-rule:evenodd;fill:#0054a7;fill-rule:evenodd" />
	<path
   class="st4"
   d="m 106.2,329.1 6.9,-13.7 c 4,3.6 8.8,6.4 14.4,6.4 3.9,0 8,-1.9 8,-6.3 0,-4.5 -6.4,-6.1 -10,-7.1 -10.1,-2.9 -16.8,-5.5 -16.8,-17.6 0,-6.8 2.6,-12.3 6.9,-16 H 21.9 v 54.3 h 84.5 c -0.1,0.1 -0.2,0 -0.2,0"
   id="path70"
   inkscape:connector-curvature="0"
   style="clip-rule:evenodd;fill:#b5b5b6;fill-rule:evenodd" />
	<polygon
   class="st5"
   points="56.3,297.7 56.3,302.3 42.2,302.3 42.2,322.1 37.2,322.1 37.2,281.7 56.7,281.7 56.7,286.3 42.2,286.3 42.2,297.7 "
   id="polygon72"
   style="fill:#ffffff" />
	<polygon
   class="st6"
   points="56.3,297.7 56.3,302.3 42.2,302.3 42.2,322.1 37.2,322.1 37.2,281.7 56.7,281.7 56.7,286.3 42.2,286.3 42.2,297.7 "
   id="polygon74"
   style="fill:none;stroke:#ffffff;stroke-width:0.95859998" />
	<polygon
   class="st5"
   points="95.6,281.7 100.6,281.7 100.6,323.8 70.3,292 70.3,322.1 65.3,322.1 65.3,279.8 95.6,311.6 "
   id="polygon76"
   style="fill:#ffffff" />
	<polygon
   class="st6"
   points="95.6,281.7 100.6,281.7 100.6,323.8 70.3,292 70.3,322.1 65.3,322.1 65.3,279.8 95.6,311.6 "
   id="polygon78"
   style="fill:none;stroke:#ffffff;stroke-width:0.95859998" />
	<polygon
   class="st5"
   points="191,281.7 196,281.7 196,323.8 165.7,292 165.7,322.1 160.7,322.1 160.7,279.8 191,311.6 "
   id="polygon80"
   style="fill:#ffffff" />
	<polygon
   class="st6"
   points="191,281.7 196,281.7 196,323.8 165.7,292 165.7,322.1 160.7,322.1 160.7,279.8 191,311.6 "
   id="polygon82"
   style="fill:none;stroke:#ffffff;stroke-width:0.95859998" />
	<polygon
   class="st5"
   points="225.3,297.7 225.3,302.3 211.3,302.3 211.3,322.1 206.3,322.1 206.3,281.7 225.8,281.7 225.8,286.3 211.3,286.3 211.3,297.7 "
   id="polygon84"
   style="fill:#ffffff" />
	<polygon
   class="st6"
   points="225.3,297.7 225.3,302.3 211.3,302.3 211.3,322.1 206.3,322.1 206.3,281.7 225.8,281.7 225.8,286.3 211.3,286.3 211.3,297.7 "
   id="polygon86"
   style="fill:none;stroke:#ffffff;stroke-width:0.95859998" />
</g>
</svg>